<mxfile host="app.diagrams.net" modified="2023-08-03T12:19:07.986Z" agent="Mozilla/5.0 (Windows NT 10.0; Win64; x64) AppleWebKit/537.36 (KHTML, like Gecko) Chrome/115.0.0.0 Safari/537.36" etag="LMC4J5BIMxbCIFoT3ahO" version="21.6.6" type="device">
  <diagram name="第 1 页" id="6HHBi3OHKmaFrQ5_rGZp">
    <mxGraphModel dx="1235" dy="684" grid="1" gridSize="10" guides="1" tooltips="1" connect="1" arrows="1" fold="1" page="1" pageScale="1" pageWidth="827" pageHeight="1169" math="0" shadow="0">
      <root>
        <mxCell id="0" />
        <mxCell id="1" parent="0" />
        <mxCell id="k1gE-kmzfSYIqreKxF9f-40" value="" style="edgeStyle=orthogonalEdgeStyle;rounded=0;orthogonalLoop=1;jettySize=auto;html=1;" edge="1" parent="1" source="k1gE-kmzfSYIqreKxF9f-21" target="k1gE-kmzfSYIqreKxF9f-39">
          <mxGeometry relative="1" as="geometry" />
        </mxCell>
        <mxCell id="k1gE-kmzfSYIqreKxF9f-21" value="start" style="ellipse;whiteSpace=wrap;html=1;" vertex="1" parent="1">
          <mxGeometry x="340" width="100" height="80" as="geometry" />
        </mxCell>
        <mxCell id="k1gE-kmzfSYIqreKxF9f-42" value="" style="edgeStyle=orthogonalEdgeStyle;rounded=0;orthogonalLoop=1;jettySize=auto;html=1;" edge="1" parent="1" source="k1gE-kmzfSYIqreKxF9f-22" target="k1gE-kmzfSYIqreKxF9f-23">
          <mxGeometry relative="1" as="geometry" />
        </mxCell>
        <mxCell id="k1gE-kmzfSYIqreKxF9f-46" style="edgeStyle=orthogonalEdgeStyle;rounded=0;orthogonalLoop=1;jettySize=auto;html=1;entryX=1;entryY=0.5;entryDx=0;entryDy=0;" edge="1" parent="1" source="k1gE-kmzfSYIqreKxF9f-22" target="k1gE-kmzfSYIqreKxF9f-35">
          <mxGeometry relative="1" as="geometry">
            <Array as="points">
              <mxPoint x="600" y="250" />
              <mxPoint x="600" y="540" />
            </Array>
          </mxGeometry>
        </mxCell>
        <mxCell id="k1gE-kmzfSYIqreKxF9f-22" value="bool" style="rhombus;whiteSpace=wrap;html=1;" vertex="1" parent="1">
          <mxGeometry x="315" y="210" width="150" height="80" as="geometry" />
        </mxCell>
        <mxCell id="k1gE-kmzfSYIqreKxF9f-43" value="" style="edgeStyle=orthogonalEdgeStyle;rounded=0;orthogonalLoop=1;jettySize=auto;html=1;" edge="1" parent="1" source="k1gE-kmzfSYIqreKxF9f-23" target="k1gE-kmzfSYIqreKxF9f-37">
          <mxGeometry relative="1" as="geometry" />
        </mxCell>
        <mxCell id="k1gE-kmzfSYIqreKxF9f-23" value="循环体" style="rounded=0;whiteSpace=wrap;html=1;" vertex="1" parent="1">
          <mxGeometry x="330" y="330" width="120" height="60" as="geometry" />
        </mxCell>
        <mxCell id="k1gE-kmzfSYIqreKxF9f-35" value="其余代码" style="rounded=0;whiteSpace=wrap;html=1;" vertex="1" parent="1">
          <mxGeometry x="330" y="510" width="120" height="60" as="geometry" />
        </mxCell>
        <mxCell id="k1gE-kmzfSYIqreKxF9f-45" style="edgeStyle=orthogonalEdgeStyle;rounded=0;orthogonalLoop=1;jettySize=auto;html=1;" edge="1" parent="1" source="k1gE-kmzfSYIqreKxF9f-37">
          <mxGeometry relative="1" as="geometry">
            <mxPoint x="390" y="190" as="targetPoint" />
            <Array as="points">
              <mxPoint x="230" y="450" />
              <mxPoint x="230" y="190" />
            </Array>
          </mxGeometry>
        </mxCell>
        <mxCell id="k1gE-kmzfSYIqreKxF9f-37" value="表达式2" style="rounded=0;whiteSpace=wrap;html=1;" vertex="1" parent="1">
          <mxGeometry x="330" y="420" width="120" height="60" as="geometry" />
        </mxCell>
        <mxCell id="k1gE-kmzfSYIqreKxF9f-41" value="" style="edgeStyle=orthogonalEdgeStyle;rounded=0;orthogonalLoop=1;jettySize=auto;html=1;" edge="1" parent="1" source="k1gE-kmzfSYIqreKxF9f-39" target="k1gE-kmzfSYIqreKxF9f-22">
          <mxGeometry relative="1" as="geometry" />
        </mxCell>
        <mxCell id="k1gE-kmzfSYIqreKxF9f-39" value="表达式1" style="rounded=0;whiteSpace=wrap;html=1;" vertex="1" parent="1">
          <mxGeometry x="330" y="110" width="120" height="60" as="geometry" />
        </mxCell>
      </root>
    </mxGraphModel>
  </diagram>
</mxfile>
